<svg xmlns="http://www.w3.org/2000/svg" viewBox="0 0 800 500" width="800" height="500">
<defs><linearGradient id="water" x2="0" y2="1"><stop stop-color="#39b9d4"/><stop offset=".6" stop-color="#73d5df"/><stop offset="1" stop-color="#b8e5d6"/></linearGradient><linearGradient id="sand" x2="0" y2="1"><stop stop-color="#f7d993"/><stop offset="1" stop-color="#e8bd6c"/></linearGradient><pattern id="grain" width="13" height="13" patternUnits="userSpaceOnUse"><circle cx="3" cy="7" r=".6" fill="#fff" opacity=".22"/></pattern></defs>
<rect width="800" height="500" fill="url(#water)"/><path d="M80 0L260 500H340L190 0M400 0L450 500H490L500 0M700 0L540 500H600L790 0" fill="#fff" opacity=".09"/>
<g fill="none" stroke="#dcffff" stroke-width="2" opacity=".32"><circle cx="122" cy="102" r="8"/><circle cx="145" cy="76" r="4"/><circle cx="643" cy="84" r="10"/><circle cx="661" cy="59" r="5"/><circle cx="427" cy="285" r="6"/><circle cx="193" cy="305" r="5"/><circle cx="700" cy="239" r="7"/></g>
<g fill="#218caa" opacity=".32"><path d="M331 95q15-14 32 0-17 14-32 0m0 0-10-9v18z"/><path d="M391 119q12-11 26 0-14 11-26 0m0 0-8-7v14z"/><path d="M356 135q12-11 26 0-14 11-26 0m0 0-8-7v14z"/></g>
<path d="M0 405Q130 373 274 424T530 410T800 398V500H0Z" fill="#78c2b4"/><path d="M0 442Q115 395 271 443T565 435T800 433V500H0Z" fill="url(#sand)"/>
<g stroke-linecap="round" fill="none"><path d="M58 438Q24 365 66 300Q89 264 70 228M59 393Q99 354 95 313M56 370Q24 346 25 311" stroke="#3a9f87" stroke-width="15"/><path d="M729 441Q763 361 733 288M741 369Q710 336 713 309M744 397Q777 367 778 338" stroke="#45a68b" stroke-width="13"/><path d="M139 457V380M139 418L111 396V371M139 398L165 375V351M111 397L93 389M165 375L183 367" stroke="#ef9191" stroke-width="13"/><path d="M650 453V386M650 425L623 407V385M650 406L677 383V366M677 387L695 382" stroke="#ed9aa1" stroke-width="12"/></g>
<g transform="translate(155 211) rotate(-8)"><path d="M-42 0L-81-34Q-86 0-80 30Z" fill="#f39076"/><ellipse rx="62" ry="49" fill="#ffb395"/><path d="M-15-43Q-22-73 11-62L28-40" fill="#f3947b"/><path d="M-12 42Q4 65 24 43" fill="#f3947b"/><path d="M-24-39Q-6 0-24 39M-6-43Q12 0-6 43" stroke="#ffe0b9" stroke-width="9" fill="none"/><ellipse cx="31" cy="-9" rx="15" ry="18" fill="#fff8db"/><ellipse cx="35" cy="-7" rx="8" ry="11" fill="#29576a"/><circle cx="37" cy="-11" r="3" fill="#fff"/><path d="M39 17Q49 23 54 13" fill="none" stroke="#bb6963" stroke-width="2.5" stroke-linecap="round"/><ellipse cx="29" cy="18" rx="8" ry="4" fill="#ee8a7c"/><path d="M-6 1Q-35-13-29 14Q-14 18-6 1" fill="#f09477"/></g>
<g transform="translate(608 187) rotate(8)"><path d="M53 2L92-35Q99 2 91 36Z" fill="#497fba"/><ellipse rx="67" ry="54" fill="#769dce"/><path d="M-16-47Q6-85 35-50M-3 47Q19 67 32 46" fill="#547fb6"/><path d="M10-47Q-6 0 15 48" stroke="#a5c3da" stroke-width="13" fill="none"/><ellipse cx="-35" cy="-9" rx="16" ry="20" fill="#fff8db"/><ellipse cx="-40" cy="-7" rx="8" ry="11" fill="#29576a"/><circle cx="-42" cy="-12" r="3" fill="#fff"/><path d="M-54 15Q-46 25-34 20" fill="none" stroke="#3e6898" stroke-width="2.5" stroke-linecap="round"/><path d="M12 8Q48-16 39 15Q26 24 12 8" fill="#547fb6"/><ellipse cx="-25" cy="21" rx="9" ry="4" fill="#aeafd1"/></g>
<g transform="translate(389 325)"><path d="M-18 0L-35-13V13Z" fill="#e6aa45"/><ellipse rx="28" ry="20" fill="#ffe391"/><path d="M-5-17V17" stroke="#f9bc64" stroke-width="7"/><circle cx="15" cy="-4" r="5" fill="#fff8df"/><circle cx="17" cy="-4" r="2.5" fill="#305970"/></g>
<g fill="#d49f59" opacity=".5"><ellipse cx="192" cy="470" rx="5" ry="2"/><ellipse cx="293" cy="455" rx="3" ry="2"/><ellipse cx="426" cy="478" rx="5" ry="2"/><ellipse cx="576" cy="461" rx="4" ry="2"/><ellipse cx="746" cy="476" rx="5" ry="2"/></g><path d="M541 442l7-16 7 13 16 1-12 11 4 15-15-8-13 8 3-15-12-9z" fill="#eea174"/><rect width="800" height="500" fill="url(#grain)"/>
</svg>
